PathFileType	3	(X/Y/Z)	D:\minhoCalibration\240510\subject1_KPNP\preferred\preferred18.trc
DataRate	CameraRate	NumFrames	NumMarkers	Units	OrigDataRate	OrigDataStartFrame	OrigNumFrames
200.0	200.0	21	10	mm	200.0	1277	152	
Frame#	Time	Left_Ankle_Outer1			Left_Ankle_Inner1			Left_Knee_Outer1			Left_Knee_Inner1			Left_Wrist1			Right_Wrist1			Right_Knee_Inner1			Right_Knee_Outer1			Right_Ankle_Inner1			Right_Ankle_Outer1			
		X1	Y1	Z1	X2	Y2	Z2	X3	Y3	Z3	X4	Y4	Z4	X5	Y5	Z5	X6	Y6	Z6	X7	Y7	Z7	X8	Y8	Z8	X9	Y9	Z9	X10	Y10	Z10	
1277	6.375	-517.3797	120.77368	-588.48346	-565.76544	131.58167	-559.27551	-371.08075	514.04938	-394.0098	-479.96497	493.38535	-370.98035	-368.68369	971.34027	-559.74548	-699.75464	1022.5449	-430.94269	-527.44751	605.81042	-211.07312	-635.60083	634.98608	-187.44962	-686.34814	199.4496	-306.10809	-771.41266	185.6902	-238.59395
1278	6.38	-518.04327	119.56426	-588.85431	-566.70172	130.50208	-559.77039	-371.98969	512.19354	-392.68762	-480.66412	491.85895	-370.62201	-368.52142	969.72955	-557.77112	-700.84991	1018.4911	-431.76868	-532.54187	595.32007	-222.12823	-640.62659	624.60889	-197.28818	-692.50708	190.63506	-322.76462	-776.62146	177.43951	-255.55063
1279	6.385	-518.84167	118.47414	-588.97131	-567.60706	129.44102	-559.98572	-372.86404	510.48184	-391.22461	-482.12955	490.32181	-369.94693	-368.72882	968.15649	-555.82404	-701.19427	1015.2101	-433.14957	-537.64014	585.27545	-233.75629	-645.34979	614.82977	-207.44147	-697.1145	181.88983	-337.80173	-783.62366	168.81427	-273.17538
1280	6.39	-519.68951	117.59288	-589.08466	-568.53119	128.39258	-559.87201	-373.35861	509.07492	-389.8555	-482.9664	489.22943	-369.35724	-368.88358	966.64417	-554.14893	-702.04071	1011.2795	-434.2648	-542.7774	575.79315	-245.46709	-650.12073	605.78949	-217.74565	-701.17499	172.72966	-351.15091	-789.35913	160.74162	-288.93005
1281	6.395	-520.62585	116.7847	-589.01953	-569.42767	127.59238	-559.84753	-374.17859	507.80542	-388.48868	-484.02988	488.10934	-368.59427	-369.14532	965.31885	-552.64099	-703.85742	1008.8087	-432.76129	-547.74542	567.14563	-256.82123	-655.11908	597.61511	-227.60603	-705.79999	164.86528	-364.12015	-794.31403	153.07376	-301.90048
1282	6.4	-521.53772	116.12697	-589.00067	-570.77753	127.03339	-560.43018	-375.15915	506.56921	-387.08932	-485.09116	487.22015	-367.6976	-369.50412	963.97485	-551.25555	-702.76257	1005.3147	-437.36713	-553.89551	558.86102	-268.72092	-660.39307	590.02332	-237.86523	-707.64703	156.77158	-375.09756	-798.72662	144.73685	-314.12173
1283	6.405	-522.40869	115.60384	-588.91919	-571.85303	126.29986	-560.43646	-376.05136	505.57428	-385.78986	-486.37543	486.29587	-366.81277	-369.85986	962.68506	-549.99976	-705.1637	1002.5492	-436.83978	-559.75751	551.56403	-279.70157	-665.05328	583.03021	-250.06651	-708.46973	147.89253	-380.66052	-801.37	136.45993	-323.9978
1284	6.41	-523.27026	115.02805	-588.83936	-572.9574	126.16663	-560.76569	-377.20154	504.68921	-384.52304	-487.14822	485.74091	-366.06146	-370.33038	961.48883	-548.77179	-704.37067	998.7132	-443.69846	-565.08002	545.13574	-290.93628	-670.79327	577.46204	-261.07812	-707.04468	140.08223	-383.93045	-803.21637	128.56886	-331.7374
1285	6.415	-523.84985	114.6781	-588.78937	-573.77808	125.67219	-560.64807	-378.33261	503.93622	-383.49307	-488.65952	484.97525	-364.9389	-370.7189	960.32513	-547.69122	-708.20599	997.72705	-442.01883	-570.12579	539.78375	-301.35175	-676.91669	572.89716	-272.43292	-705.41412	132.58521	-386.7746	-803.65033	121.72683	-337.4274
1286	6.42	-524.37695	114.3484	-588.69812	-574.39026	125.24863	-560.67236	-379.70248	503.31985	-382.44241	-489.8526	484.13928	-364.94479	-371.07376	959.29871	-546.67108	-709.46588	996.43237	-445.57883	-574.8598	534.16388	-314.38129	-683.63898	569.58917	-282.50824	-704.68378	127.03933	-389.35672	-802.85162	115.96948	-341.97699
1287	6.425	-524.776	114.00251	-588.71521	-574.89771	124.77195	-560.80511	-381.35284	502.83777	-381.65924	-490.78021	483.77945	-365.03873	-371.40292	958.44006	-545.54236	-711.32465	995.33655	-449.80615	-579.4361	531.16986	-324.18478	-689.81879	567.09857	-292.37723	-704.19287	122.19896	-393.09515	-801.42328	111.70123	-345.55548
1288	6.43	-525.01514	113.72709	-588.74738	-575.30627	124.40152	-560.88928	-382.5014	502.68491	-380.94458	-492.16266	483.45853	-364.80054	-371.6525	957.82281	-544.52887	-712.69623	995.55377	-454.10303	-583.62677	529.87848	-332.19458	-695.18799	565.49841	-301.3674	-702.12158	119.01292	-397.54156	-800.0116	108.50536	-348.15106
1289	6.435	-525.15265	113.51644	-588.7243	-575.54413	124.1924	-561.07227	-384.20462	502.62976	-380.29449	-493.85333	483.27011	-364.86508	-371.92484	957.47375	-543.41138	-714.37988	995.60632	-458.59717	-587.47498	529.88977	-338.91531	-699.62256	564.54407	-309.47198	-700.6925	116.62415	-400.00089	-798.48755	105.74735	-350.94553
1290	6.44	-525.06183	113.43974	-588.7489	-575.65704	123.96352	-561.33398	-385.88998	502.8606	-379.84576	-495.71472	483.45502	-364.87604	-372.2655	957.3703	-542.0816	-716.59924	995.5661	-465.79959	-591.16046	531.05811	-344.39285	-703.35138	563.93475	-317.04715	-697.82452	114.93796	-402.53107	-796.98474	103.04971	-353.43982
1291	6.445	-524.83423	113.37746	-588.76611	-575.68958	123.82506	-561.55249	-387.76364	503.22141	-379.48956	-497.27859	483.82812	-365.77255	-372.48889	957.57294	-540.82703	-717.94879	997.23981	-469.0976	-594.83795	532.98706	-349.22174	-706.92352	563.47021	-324.34879	-698.26416	112.73747	-402.59698	-796.11151	101.38261	-354.88696
1292	6.45	-524.66199	113.38638	-588.79999	-575.60809	123.80602	-561.96619	-389.58881	503.99335	-379.31375	-499.59784	484.08676	-366.67844	-372.88754	958.11548	-539.32104	-720.93793	997.87183	-475.28391	-598.16333	534.62616	-354.71506	-710.43939	563.16431	-331.52338	-698.13751	111.30986	-403.30426	-795.72662	100.49982	-355.54074
1293	6.455	-524.29181	113.51323	-588.91858	-575.43799	123.87054	-562.34174	-391.45496	504.96442	-379.35327	-501.38998	485.37888	-367.43863	-373.28793	958.93445	-537.87518	-722.44922	998.25946	-480.91632	-601.19733	537.74841	-356.08847	-714.33295	563.07349	-338.17706	-698.29681	110.68894	-403.81134	-795.95605	100.14512	-355.95612
1294	6.46	-523.92694	113.66875	-588.95245	-575.20135	123.94766	-562.69019	-393.38071	506.40344	-379.38116	-503.50613	486.4761	-368.70865	-373.55811	960.00427	-536.46344	-723.31927	999.20874	-487.11609	-604.72748	538.72534	-361.34335	-718.17065	563.19232	-345.13187	-699.11737	109.78162	-404.67184	-796.46265	99.979286	-356.35471
1295	6.465	-523.60187	113.90698	-588.9884	-574.95886	124.08801	-563.03223	-395.40298	507.71069	-379.85583	-505.98758	487.47708	-370.33569	-374.46176	961.50867	-534.72467	-724.62128	999.87469	-492.90356	-608.22424	539.26978	-366.18341	-721.9928	563.63239	-352.49457	-699.26245	111.00344	-404.35565	-797.1767	100.07827	-356.7865
1296	6.47	-523.10938	114.14768	-589.12738	-574.65436	124.21873	-563.42511	-397.42444	509.12906	-380.57932	-507.77136	489.50583	-371.64856	-374.90729	963.24536	-533.32141	-725.25336	1001.7259	-498.5213	-611.73016	539.37634	-370.63718	-726.13519	564.20667	-360.0563	-700.13739	110.96661	-404.78781	-798.13416	100.49166	-357.33835
1297	6.475	-522.66754	114.42774	-589.27942	-574.35931	124.34434	-563.8407	-399.35074	510.70041	-381.53854	-509.96655	490.64203	-373.99384	-375.17123	965.26221	-531.98718	-726.7066	1002.6829	-504.19522	-615.32446	539.37384	-374.60901	-730.65979	564.82422	-367.39017	-701.13696	111.38075	-405.27719	-799.13123	100.98405	-358.29633
